# xmcd
#
# Track frame offsets:
#	150
#	14060
#	26435
#	36970
#	50837
#	62925
#	71577
#	82587
#	92667
#	103757
#	114412
#	123217
#	134915
#	148347
#	160327
#	170917
#	182645
#	194835
#	207987
#	219722
#	229640
#	241177
#
# Disc length: 3353 seconds
#
# Revision: 0
# Processed by: cddbd v1.5.2PL0 Copyright (c) Steve Scherf et al.
# Submitted via: EasyCDDAExtractor 12.0.1.1
#
DISCID=510d1716
DTITLE=Various Artist - The Best Of Bluegrass Vol. 1: Standards
DYEAR=1994
DGENRE=Bluegrass
TTITLE0=The Stanley Brothers - The Clinch Mountain Boys - I Long To See The Ol
TTITLE0=d Folks
TTITLE1=Carl Story - Family Reunion
TTITLE2=The Osborne Brothers - Red Allen  - Down In The Willow Garden
TTITLE3=The Country Gentlemen - The Girl Behind The Bar
TTITLE4=Lester Flatt - Earl Scruggs and The Foggy Mountain Boys - Pike County Br
TTITLE4=eakdown
TTITLE5=The Lonesome Pine Fiddlers - Blue Moon Of Kentucky
TTITLE6=Lester Flatt - Earl Scruggs and The Foggy Mountain Boys - Cora Is Gone
TTITLE7=Rusty York - Dixie Strut
TTITLE8=Lester Flatt - Earl Scruggs and The Foggy Mountain Boys - Old Salty Dog 
TTITLE8=Blues
TTITLE9=The Country Gentlemen - Can't You Hear Me Calling
TTITLE10=Arthur Smith - Don Reno - Feudin' Banjos
TTITLE11=Lester Flatt - Earl Scruggs and The Foggy Mountain Boys - Roll In My Sw
TTITLE11=eet Baby's Arm
TTITLE12=The Osborne Brothers - Red Allen - Ruby, Are You Mad
TTITLE13=Flatt and Scruggs - Foggy Mountain Breakdown
TTITLE14=The Osborne Brothers - Red Allen - My Aching Heart
TTITLE15=Stanley Brothers - The Clinch Mountain Boys - Our Last Goodbye
TTITLE16=The Osborne Brothers - Red Allen - Once More
TTITLE17=Stanley Brothers - The Clinch Mountain Boys - Who Will Call You Sweet
TTITLE17=heart
TTITLE18=Harley "Red" Allen - I'm Thinking Tonight Of My Blue Eyes
TTITLE19=Stanley Brothers - The Clinch Mountain Boys - Loving You To Well
TTITLE20=The Country Gentlemen - I Am Weary (Let Me Rest)
TTITLE21=Stanley Brothers - The Clinch Mountain Boys - Angel Band
EXTD=
EXTT0=
EXTT1=
EXTT2=
EXTT3=
EXTT4=
EXTT5=
EXTT6=
EXTT7=
EXTT8=
EXTT9=
EXTT10=
EXTT11=
EXTT12=
EXTT13=
EXTT14=
EXTT15=
EXTT16=
EXTT17=
EXTT18=
EXTT19=
EXTT20=
EXTT21=
PLAYORDER=
